{"title":"ABCD 2 (2015) S-Cam Rip - XviD - [1CD] - Team IcTv Exclusive","uid":12038583,"size":725211794,"categoryP":"video","categoryS":"movies","magnet":"?xt=urn:btih:25d0c5145d62c6c48d175e8c34a33e1b853f3f12&amp;dn=ABCD+2+%282015%29+S-Cam+Rip+-+XviD+-+%5B1CD%5D+-+Team+IcTv+Exclusive&amp;tr=udp%3A%2F%2Ftracker.openbittorrent.com%3A80&amp;tr=udp%3A%2F%2Fopen.demonii.com%3A1337&amp;tr=udp%3A%2F%2Ftracker.coppersurfer.tk%3A6969&amp;tr=udp%3A%2F%2Fexodus.desync.com%3A6969","seeders":1,"leechers":0,"uploader":"SS132203","files":2,"time":1434731530,"description":"ABCD 2 (2015) S-Cam Rip - XviD - [1CD] - Team IcTv Exclusive\n &lt;a href=&quot;\nhttp://imgsparrow.co/image/47&quot; rel=&quot;nofollow&quot; target=&quot;_NEW&quot;&gt;\nhttp://imgsparrow.co/image/47&lt;/a&gt;\n &lt;a href=&quot;\nhttp://imgsparrow.co/image/QS&quot; rel=&quot;nofollow&quot; target=&quot;_NEW&quot;&gt;\nhttp://imgsparrow.co/image/QS&lt;/a&gt;\n\nInfo : - \n\nAll Credit Goes To Intellect Clever &amp; IcTv\nIts a CAM Don't Compare With BluRay\n\nMovie Info\nBanner : Disney\nYear : 2015\nCast : Varun Dhawan and Shraddha Kapoor\nVideo: XviD\nAudio : MP3\nGenre : Musicall\nSubtitles :nope\nResolution : 640 x 272\nRuntime : 2hr 24min XX\nSource : Team IcTv \n\nFormat                      : AVI\nFormat/Info                 : Audio Video Interleave\nFile size                   : 692 MiB\nDuration                    : 2h 24mn\nOverall bit rate            : 669 Kbps\n\nVideo\nID                          : 0\nFormat                      : MPEG-4 Visual\nFormat profile              : Advanced Simple@L5\nFormat settings, BVOP       : 2\nFormat settings, QPel       : No\nFormat settings, GMC        : No warppoints\nFormat settings, Matrix     : Default (H.263)\nCodec ID                    : XVID\nCodec ID/Hint               : XviD\nDuration                    : 2h 24mn\nBit rate                    : 535 Kbps\nWidth                       : 640 pixels\nHeight                      : 272 pixels\nDisplay aspect ratio        : 2.35:1\nFrame rate                  : 25.000 fps\nColor space                 : YUV\nChroma subsampling          : 4:2:0\nBit depth                   : 8 bits\nScan type                   : Progressive\nCompression mode            : Lossy\nBits/(Pixel*Frame)          : 0.123\nStream size                 : 553 MiB (80%)\nWriting library             : XviD 1.2.1 (UTC 2008-12-04)\n\nAudio\nID                          : 1\nFormat                      : MPEG Audio\nFormat version              : Version 1\nFormat profile              : Layer 3\nMode                        : Joint stereo\nMode extension              : MS Stereo\nCodec ID                    : 55\nCodec ID/Hint               : MP3\nDuration                    : 2h 24mn\nBit rate mode               : Constant\nBit rate                    : 128 Kbps\nChannel(s)                  : 2 channels\nSampling rate               : 48.0 KHz\nCompression mode            : Lossy\nStream size                 : 132 MiB (19%)\n\nScreens : - \n &lt;a href=&quot;\nhttp://imgsparrow.co/image/Zt&quot; rel=&quot;nofollow&quot; target=&quot;_NEW&quot;&gt;\nhttp://imgsparrow.co/image/Zt&lt;/a&gt; &lt;a href=&quot;\nhttp://imgsparrow.co/image/ZE&quot; rel=&quot;nofollow&quot; target=&quot;_NEW&quot;&gt;\nhttp://imgsparrow.co/image/ZE&lt;/a&gt; &lt;a href=&quot;\nhttp://imgsparrow.co/image/ZJ&quot; rel=&quot;nofollow&quot; target=&quot;_NEW&quot;&gt;\nhttp://imgsparrow.co/image/ZJ&lt;/a&gt; &lt;a href=&quot;\nhttp://imgsparrow.co/image/ZU&quot; rel=&quot;nofollow&quot; target=&quot;_NEW&quot;&gt;\nhttp://imgsparrow.co/image/ZU&lt;/a&gt; &lt;a href=&quot;\nhttp://imgsparrow.co/image/Zu&quot; rel=&quot;nofollow&quot; target=&quot;_NEW&quot;&gt;\nhttp://imgsparrow.co/image/Zu&lt;/a&gt; &lt;a href=&quot;\nhttp://imgsparrow.co/image/Zw&quot; rel=&quot;nofollow&quot; target=&quot;_NEW&quot;&gt;\nhttp://imgsparrow.co/image/Zw&lt;/a&gt; &lt;a href=&quot;\nhttp://imgsparrow.co/image/Z4&quot; rel=&quot;nofollow&quot; target=&quot;_NEW&quot;&gt;\nhttp://imgsparrow.co/image/Z4&lt;/a&gt; &lt;a href=&quot;\nhttp://imgsparrow.co/image/ZH&quot; rel=&quot;nofollow&quot; target=&quot;_NEW&quot;&gt;\nhttp://imgsparrow.co/image/ZH&lt;/a&gt; &lt;a href=&quot;\nhttp://imgsparrow.co/image/ZT&quot; rel=&quot;nofollow&quot; target=&quot;_NEW&quot;&gt;\nhttp://imgsparrow.co/image/ZT&lt;/a&gt; &lt;a href=&quot;\nhttp://imgsparrow.co/image/Zb&quot; rel=&quot;nofollow&quot; target=&quot;_NEW&quot;&gt;\nhttp://imgsparrow.co/image/Zb&lt;/a&gt;\n &lt;a href=&quot;\nhttp://imgsparrow.co/image/N2&quot; rel=&quot;nofollow&quot; target=&quot;_NEW&quot;&gt;\nhttp://imgsparrow.co/image/N2&lt;/a&gt;","torrent":{"xt":"urn:btih:25d0c5145d62c6c48d175e8c34a33e1b853f3f12","amp;dn":"ABCD+2+%282015%29+S-Cam+Rip+-+XviD+-+%5B1CD%5D+-+Team+IcTv+Exclusive","amp;tr":["udp%3A%2F%2Ftracker.openbittorrent.com%3A80","udp%3A%2F%2Fopen.demonii.com%3A1337","udp%3A%2F%2Ftracker.coppersurfer.tk%3A6969","udp%3A%2F%2Fexodus.desync.com%3A6969"],"infoHash":"25d0c5145d62c6c48d175e8c34a33e1b853f3f12","infoHashBuffer":{"type":"Buffer","data":[37,208,197,20,93,98,198,196,141,23,94,140,52,163,62,27,133,63,63,18]},"announce":[],"urlList":[]}}